<svg width="22px" height="22px" viewBox="1 0 19 22" version="1.1" xmlns="http://www.w3.org/2000/svg" xmlns:xlink="http://www.w3.org/1999/xlink">
    <!-- Generator: Sketch 42 (36781) - http://www.bohemiancoding.com/sketch -->
    <desc>Created with Sketch.</desc>
    <defs>
        <polygon id="path-1" points="0.651494565 21.9810279 18.3984375 21.9923765 18.753142 21.9295694 18.9511719 21.6813729 18.9971128 21.2504725 18.9391984 20.9989841 16.899966 14.1380182 16.7702106 13.9566138 16.6087806 13.8536968 16.3862092 13.7800608 16.0275985 13.7500866 14.6734035 13.7500866 10.9246773 0.996424521 10.7296196 0.45359753 10.5383832 0.202022429 10.2171365 0.0783140121 9.87228261 0.0237367692 9.39877717 0.0142940398 8.84935462 0.0524114793 8.54398777 0.158967049 8.35929008 0.268121535 8.25305707 0.48383159 8.11659307 0.89922505 4.31861413 13.7736501 2.65990149 13.7664598 2.36132813 13.8279675 2.21195652 13.9504631 2.12576427 14.1207787 1.91593071 14.6979114 0.0513756793 21.0004568 0.0169836957 21.1541394 0.019361413 21.579582 0.0766813859 21.7812579 0.197350543 21.8878134 0.39622962 21.9600633"></polygon>
    </defs>
    <g id="Path-2" stroke="none" stroke-width="1" fill="none" fill-rule="evenodd" transform="translate(165.000000, 105.000000)">
        <mask id="mask-2" fill="white">
            <use xlink:href="#path-1"></use>
        </mask>
        <use id="Mask" fill="#000000" xlink:href="#path-1"></use>
        <path d="M4.13703719,14.4057932 C4.13703719,14.4057932 4.13703719,15.6900044 6.60101053,16.2255761 C9.06498387,16.7611478 10.7596807,16.5122149 10.7596807,16.5122149 C10.7596807,16.5122149 14.2951766,16.3124016 14.8485054,14.4203038 C14.8298351,14.3593106 14.7221899,13.9974228 14.6846977,13.8743581 C14.6280183,13.6883135 14.4890052,13.1591273 14.384893,12.8181152 C14.2251722,12.2949612 13.8382303,10.9557318 13.8382303,10.9557318 C13.8382303,10.9557318 13.2337806,12.3331574 9.71832541,12.3331574 C6.20287024,12.3331574 5.52887228,11.5646579 5.16703465,10.9557318 C5.05479582,11.2469812 4.13703719,14.4057932 4.13703719,14.4057932 Z" stroke="#979797" fill-opacity="0.5" fill="#FFFFFF" mask="url(#mask-2)"></path>
        <path d="M6.37224015,6.826227 C6.37224015,6.826227 6.66389266,7.69842332 9.69064198,7.69842332 C12.7173913,7.69842332 12.622962,6.82692005 12.622962,6.82692005 L11.5349015,3.00885207 C11.5349015,3.00885207 11.2623132,3.35554751 9.55536685,3.35554751 C7.84842052,3.35554751 7.51554008,2.97610572 7.51554008,2.97610572 L6.37224015,6.826227 Z" id="Path-3" stroke="#979797" fill-opacity="0.5" fill="#FFFFFF" mask="url(#mask-2)"></path>
    </g>
</svg>
